<svg width="12" height="24" viewBox="0 0 12 24" fill="none" xmlns="http://www.w3.org/2000/svg">
<path d="M9.44922 16.4224C9.44922 15.6737 9.18473 15.043 8.65576 14.5303C8.13493 14.0176 7.25195 13.5537 6.00684 13.1387C4.27344 12.6097 3.00798 11.922 2.21045 11.0757C1.42106 10.2212 1.02637 9.13883 1.02637 7.82861C1.02637 6.49398 1.41292 5.39941 2.18604 4.54492C2.96729 3.69043 4.03743 3.1818 5.39648 3.01904V0.345703H7.21533V3.03125C8.58252 3.21842 9.64453 3.79215 10.4014 4.75244C11.1663 5.71273 11.5488 7.02702 11.5488 8.69531H9.30273C9.30273 7.54785 9.03011 6.63639 8.48486 5.96094C7.93962 5.28548 7.20312 4.94775 6.27539 4.94775C5.30697 4.94775 4.56641 5.20003 4.05371 5.70459C3.54102 6.20101 3.28467 6.89681 3.28467 7.79199C3.28467 8.62207 3.55322 9.28532 4.09033 9.78174C4.63558 10.27 5.52669 10.7176 6.76367 11.1245C8.00879 11.5233 8.97721 11.9668 9.66895 12.4551C10.3688 12.9352 10.8815 13.4967 11.207 14.1396C11.5407 14.7826 11.7075 15.5353 11.7075 16.3979C11.7075 17.7733 11.2925 18.88 10.4624 19.7183C9.64046 20.5565 8.48486 21.0529 6.99561 21.2075V23.5391H5.18896V21.2075C3.67529 21.0692 2.48714 20.5321 1.62451 19.5962C0.77002 18.6522 0.342773 17.3745 0.342773 15.7632H2.60107C2.60107 16.8944 2.89811 17.7651 3.49219 18.3755C4.08626 18.9858 4.92855 19.291 6.01904 19.291C7.08512 19.291 7.92334 19.0347 8.53369 18.522C9.14404 18.0093 9.44922 17.3094 9.44922 16.4224Z" fill="black"/>
</svg>
